<svg xmlns="http://www.w3.org/2000/svg" viewBox="0 0 1082 636" width="1082" height="636" role="img" aria-label="SUPER-RESOLUTION diagram">
  <rect width="1082" height="636" fill="#160000"/>
  <path d="M 0.0 0 L 0.0 636 M 41.6 0 L 41.6 636 M 83.2 0 L 83.2 636 M 124.8 0 L 124.8 636 M 166.4 0 L 166.4 636 M 208.0 0 L 208.0 636 M 249.6 0 L 249.6 636 M 291.2 0 L 291.2 636 M 332.8 0 L 332.8 636 M 374.4 0 L 374.4 636 M 416.0 0 L 416.0 636 M 457.6 0 L 457.6 636 M 499.2 0 L 499.2 636 M 540.8 0 L 540.8 636 M 582.4 0 L 582.4 636 M 624.0 0 L 624.0 636 M 665.6 0 L 665.6 636 M 707.2 0 L 707.2 636 M 748.8 0 L 748.8 636 M 790.4 0 L 790.4 636 M 832.0 0 L 832.0 636 M 873.6 0 L 873.6 636 M 915.2 0 L 915.2 636 M 956.8 0 L 956.8 636 M 998.4 0 L 998.4 636 M 1040.0 0 L 1040.0 636 M 1081.6 0 L 1081.6 636 M 0 0.0 L 1082 0.0 M 0 42.4 L 1082 42.4 M 0 84.8 L 1082 84.8 M 0 127.2 L 1082 127.2 M 0 169.6 L 1082 169.6 M 0 212.0 L 1082 212.0 M 0 254.4 L 1082 254.4 M 0 296.8 L 1082 296.8 M 0 339.2 L 1082 339.2 M 0 381.6 L 1082 381.6 M 0 424.0 L 1082 424.0 M 0 466.4 L 1082 466.4 M 0 508.8 L 1082 508.8 M 0 551.2 L 1082 551.2 M 0 593.6 L 1082 593.6 M 0 636.0 L 1082 636.0" stroke="#fff2ed" stroke-width="1" opacity="0.06" fill="none"/>
  <path d="M 28 28 l 26 0 M 28 28 l 0 26 M 1054 28 l -26 0 M 1054 28 l 0 26 M 28 608 l 26 0 M 28 608 l 0 -26 M 1054 608 l -26 0 M 1054 608 l 0 -26"
        stroke="#fff2ed" stroke-width="2" opacity="0.55" fill="none"/>
  <text x="52" y="66" fill="#fff2ed" opacity="0.7" font-family="ui-monospace, SFMono-Regular, Menlo, Consolas, monospace" font-size="21" letter-spacing="2">SUPER-RESOLUTION</text>
  <text x="1030" y="592" fill="#f40c3f" text-anchor="end" font-family="ui-monospace, SFMono-Regular, Menlo, Consolas, monospace" font-size="21" letter-spacing="2">SWINIR / VGG</text>
    <path d="M 144.2 138 l 0 340 M 118 164.2 l 340 0 M 170.3 138 l 0 340 M 118 190.3 l 340 0 M 196.5 138 l 0 340 M 118 216.5 l 340 0 M 222.6 138 l 0 340 M 118 242.6 l 340 0 M 248.8 138 l 0 340 M 118 268.8 l 340 0 M 274.9 138 l 0 340 M 118 294.9 l 340 0 M 301.1 138 l 0 340 M 118 321.1 l 340 0 M 327.2 138 l 0 340 M 118 347.2 l 340 0 M 353.4 138 l 0 340 M 118 373.4 l 340 0 M 379.5 138 l 0 340 M 118 399.5 l 340 0 M 405.7 138 l 0 340 M 118 425.7 l 340 0 M 431.8 138 l 0 340 M 118 451.8 l 340 0" stroke="#fff2ed" stroke-width="1" opacity="0.12" fill="none"/>
    <g opacity="0.9">
      <rect x="274.9" y="190.3" width="23.65" height="23.65" fill="#fff2ed"/>
      <rect x="274.9" y="216.5" width="23.65" height="23.65" fill="#fff2ed"/>
      <rect x="274.9" y="242.6" width="23.65" height="23.65" fill="#fff2ed"/>
      <rect x="274.9" y="268.8" width="23.65" height="23.65" fill="#fff2ed"/>
      <rect x="274.9" y="294.9" width="23.65" height="23.65" fill="#fff2ed"/>
      <rect x="274.9" y="321.1" width="23.65" height="23.65" fill="#fff2ed"/>
      <rect x="274.9" y="347.2" width="23.65" height="23.65" fill="#fff2ed"/>
      <rect x="274.9" y="373.4" width="23.65" height="23.65" fill="#fff2ed"/>
      <rect x="274.9" y="399.5" width="23.65" height="23.65" fill="#fff2ed"/>
      <rect x="274.9" y="425.7" width="23.65" height="23.65" fill="#fff2ed"/>
      <rect x="301.1" y="190.3" width="23.65" height="23.65" fill="#fff2ed"/>
      <rect x="248.8" y="190.3" width="23.65" height="23.65" fill="#fff2ed"/>
      <rect x="301.1" y="216.5" width="23.65" height="23.65" fill="#fff2ed"/>
      <rect x="248.8" y="216.5" width="23.65" height="23.65" fill="#fff2ed"/>
      <rect x="327.2" y="216.5" width="23.65" height="23.65" fill="#fff2ed"/>
      <rect x="222.6" y="216.5" width="23.65" height="23.65" fill="#fff2ed"/>
      <rect x="353.4" y="216.5" width="23.65" height="23.65" fill="#fff2ed"/>
      <rect x="196.5" y="216.5" width="23.65" height="23.65" fill="#fff2ed"/>
      <rect x="379.5" y="216.5" width="23.65" height="23.65" fill="#fff2ed"/>
      <rect x="170.3" y="216.5" width="23.65" height="23.65" fill="#fff2ed"/>
      <rect x="379.5" y="242.6" width="23.65" height="23.65" fill="#fff2ed"/>
      <rect x="170.3" y="242.6" width="23.65" height="23.65" fill="#fff2ed"/>
      <rect x="405.7" y="242.6" width="23.65" height="23.65" fill="#fff2ed"/>
      <rect x="144.2" y="242.6" width="23.65" height="23.65" fill="#fff2ed"/>
      <rect x="405.7" y="268.8" width="23.65" height="23.65" fill="#fff2ed"/>
      <rect x="144.2" y="268.8" width="23.65" height="23.65" fill="#fff2ed"/>
      <rect x="405.7" y="294.9" width="23.65" height="23.65" fill="#fff2ed"/>
      <rect x="144.2" y="294.9" width="23.65" height="23.65" fill="#fff2ed"/>
      <rect x="301.1" y="268.8" width="23.65" height="23.65" fill="#fff2ed"/>
      <rect x="248.8" y="268.8" width="23.65" height="23.65" fill="#fff2ed"/>
      <rect x="327.2" y="268.8" width="23.65" height="23.65" fill="#fff2ed"/>
      <rect x="222.6" y="268.8" width="23.65" height="23.65" fill="#fff2ed"/>
      <rect x="353.4" y="268.8" width="23.65" height="23.65" fill="#fff2ed"/>
      <rect x="196.5" y="268.8" width="23.65" height="23.65" fill="#fff2ed"/>
      <rect x="353.4" y="294.9" width="23.65" height="23.65" fill="#fff2ed"/>
      <rect x="196.5" y="294.9" width="23.65" height="23.65" fill="#fff2ed"/>
      <rect x="379.5" y="294.9" width="23.65" height="23.65" fill="#fff2ed"/>
      <rect x="170.3" y="294.9" width="23.65" height="23.65" fill="#fff2ed"/>
      <rect x="379.5" y="321.1" width="23.65" height="23.65" fill="#fff2ed"/>
      <rect x="170.3" y="321.1" width="23.65" height="23.65" fill="#fff2ed"/>
      <rect x="405.7" y="321.1" width="23.65" height="23.65" fill="#fff2ed"/>
      <rect x="144.2" y="321.1" width="23.65" height="23.65" fill="#fff2ed"/>
      <rect x="405.7" y="347.2" width="23.65" height="23.65" fill="#fff2ed"/>
      <rect x="144.2" y="347.2" width="23.65" height="23.65" fill="#fff2ed"/>
      <rect x="301.1" y="321.1" width="23.65" height="23.65" fill="#fff2ed"/>
      <rect x="248.8" y="321.1" width="23.65" height="23.65" fill="#fff2ed"/>
      <rect x="327.2" y="321.1" width="23.65" height="23.65" fill="#fff2ed"/>
      <rect x="222.6" y="321.1" width="23.65" height="23.65" fill="#fff2ed"/>
      <rect x="327.2" y="347.2" width="23.65" height="23.65" fill="#fff2ed"/>
      <rect x="222.6" y="347.2" width="23.65" height="23.65" fill="#fff2ed"/>
      <rect x="353.4" y="347.2" width="23.65" height="23.65" fill="#fff2ed"/>
      <rect x="196.5" y="347.2" width="23.65" height="23.65" fill="#fff2ed"/>
      <rect x="353.4" y="373.4" width="23.65" height="23.65" fill="#fff2ed"/>
      <rect x="196.5" y="373.4" width="23.65" height="23.65" fill="#fff2ed"/>
      <rect x="379.5" y="373.4" width="23.65" height="23.65" fill="#fff2ed"/>
      <rect x="170.3" y="373.4" width="23.65" height="23.65" fill="#fff2ed"/>
      <rect x="379.5" y="399.5" width="23.65" height="23.65" fill="#fff2ed"/>
      <rect x="170.3" y="399.5" width="23.65" height="23.65" fill="#fff2ed"/>
      <rect x="353.4" y="399.5" width="23.65" height="23.65" fill="#fff2ed"/>
      <rect x="196.5" y="399.5" width="23.65" height="23.65" fill="#fff2ed"/>
    </g>
    <rect x="118" y="138" width="340" height="340" fill="none" stroke="#fff2ed" stroke-width="1.5" opacity="0.45"/>
    <text x="288" y="522" fill="#fff2ed" opacity="0.6" text-anchor="middle" font-family="ui-monospace, SFMono-Regular, Menlo, Consolas, monospace" font-size="20" letter-spacing="2">LOW RES</text>

    <path d="M 631.4 138 l 0 340 M 624 145.4 l 340 0 M 638.8 138 l 0 340 M 624 152.8 l 340 0 M 646.2 138 l 0 340 M 624 160.2 l 340 0 M 653.6 138 l 0 340 M 624 167.6 l 340 0 M 661.0 138 l 0 340 M 624 175.0 l 340 0 M 668.3 138 l 0 340 M 624 182.3 l 340 0 M 675.7 138 l 0 340 M 624 189.7 l 340 0 M 683.1 138 l 0 340 M 624 197.1 l 340 0 M 690.5 138 l 0 340 M 624 204.5 l 340 0 M 697.9 138 l 0 340 M 624 211.9 l 340 0 M 705.3 138 l 0 340 M 624 219.3 l 340 0 M 712.7 138 l 0 340 M 624 226.7 l 340 0 M 720.1 138 l 0 340 M 624 234.1 l 340 0 M 727.5 138 l 0 340 M 624 241.5 l 340 0 M 734.9 138 l 0 340 M 624 248.9 l 340 0 M 742.3 138 l 0 340 M 624 256.3 l 340 0 M 749.7 138 l 0 340 M 624 263.7 l 340 0 M 757.0 138 l 0 340 M 624 271.0 l 340 0 M 764.4 138 l 0 340 M 624 278.4 l 340 0 M 771.8 138 l 0 340 M 624 285.8 l 340 0 M 779.2 138 l 0 340 M 624 293.2 l 340 0 M 786.6 138 l 0 340 M 624 300.6 l 340 0 M 794.0 138 l 0 340 M 624 308.0 l 340 0 M 801.4 138 l 0 340 M 624 315.4 l 340 0 M 808.8 138 l 0 340 M 624 322.8 l 340 0 M 816.2 138 l 0 340 M 624 330.2 l 340 0 M 823.6 138 l 0 340 M 624 337.6 l 340 0 M 831.0 138 l 0 340 M 624 345.0 l 340 0 M 838.3 138 l 0 340 M 624 352.3 l 340 0 M 845.7 138 l 0 340 M 624 359.7 l 340 0 M 853.1 138 l 0 340 M 624 367.1 l 340 0 M 860.5 138 l 0 340 M 624 374.5 l 340 0 M 867.9 138 l 0 340 M 624 381.9 l 340 0 M 875.3 138 l 0 340 M 624 389.3 l 340 0 M 882.7 138 l 0 340 M 624 396.7 l 340 0 M 890.1 138 l 0 340 M 624 404.1 l 340 0 M 897.5 138 l 0 340 M 624 411.5 l 340 0 M 904.9 138 l 0 340 M 624 418.9 l 340 0 M 912.3 138 l 0 340 M 624 426.3 l 340 0 M 919.7 138 l 0 340 M 624 433.7 l 340 0 M 927.0 138 l 0 340 M 624 441.0 l 340 0 M 934.4 138 l 0 340 M 624 448.4 l 340 0 M 941.8 138 l 0 340 M 624 455.8 l 340 0 M 949.2 138 l 0 340 M 624 463.2 l 340 0 M 956.6 138 l 0 340 M 624 470.6 l 340 0" stroke="#fff2ed" stroke-width="1" opacity="0.12" fill="none"/>
    <g opacity="0.95">
      <rect x="794.0" y="189.7" width="6.59" height="6.59" fill="#fff2ed"/>
      <rect x="794.0" y="197.1" width="6.59" height="6.59" fill="#fff2ed"/>
      <rect x="794.0" y="204.5" width="6.59" height="6.59" fill="#fff2ed"/>
      <rect x="794.0" y="211.9" width="6.59" height="6.59" fill="#fff2ed"/>
      <rect x="794.0" y="219.3" width="6.59" height="6.59" fill="#fff2ed"/>
      <rect x="794.0" y="226.7" width="6.59" height="6.59" fill="#fff2ed"/>
      <rect x="794.0" y="234.1" width="6.59" height="6.59" fill="#fff2ed"/>
      <rect x="794.0" y="241.5" width="6.59" height="6.59" fill="#fff2ed"/>
      <rect x="794.0" y="248.9" width="6.59" height="6.59" fill="#fff2ed"/>
      <rect x="794.0" y="256.3" width="6.59" height="6.59" fill="#fff2ed"/>
      <rect x="794.0" y="263.7" width="6.59" height="6.59" fill="#fff2ed"/>
      <rect x="794.0" y="271.0" width="6.59" height="6.59" fill="#fff2ed"/>
      <rect x="794.0" y="278.4" width="6.59" height="6.59" fill="#fff2ed"/>
      <rect x="794.0" y="285.8" width="6.59" height="6.59" fill="#fff2ed"/>
      <rect x="794.0" y="293.2" width="6.59" height="6.59" fill="#fff2ed"/>
      <rect x="794.0" y="300.6" width="6.59" height="6.59" fill="#fff2ed"/>
      <rect x="794.0" y="308.0" width="6.59" height="6.59" fill="#fff2ed"/>
      <rect x="794.0" y="315.4" width="6.59" height="6.59" fill="#fff2ed"/>
      <rect x="794.0" y="322.8" width="6.59" height="6.59" fill="#fff2ed"/>
      <rect x="794.0" y="330.2" width="6.59" height="6.59" fill="#fff2ed"/>
      <rect x="794.0" y="337.6" width="6.59" height="6.59" fill="#fff2ed"/>
      <rect x="794.0" y="345.0" width="6.59" height="6.59" fill="#fff2ed"/>
      <rect x="794.0" y="352.3" width="6.59" height="6.59" fill="#fff2ed"/>
      <rect x="794.0" y="359.7" width="6.59" height="6.59" fill="#fff2ed"/>
      <rect x="794.0" y="367.1" width="6.59" height="6.59" fill="#fff2ed"/>
      <rect x="794.0" y="374.5" width="6.59" height="6.59" fill="#fff2ed"/>
      <rect x="794.0" y="381.9" width="6.59" height="6.59" fill="#fff2ed"/>
      <rect x="794.0" y="389.3" width="6.59" height="6.59" fill="#fff2ed"/>
      <rect x="794.0" y="396.7" width="6.59" height="6.59" fill="#fff2ed"/>
      <rect x="794.0" y="404.1" width="6.59" height="6.59" fill="#fff2ed"/>
      <rect x="794.0" y="411.5" width="6.59" height="6.59" fill="#fff2ed"/>
      <rect x="794.0" y="418.9" width="6.59" height="6.59" fill="#fff2ed"/>
      <rect x="794.0" y="426.3" width="6.59" height="6.59" fill="#fff2ed"/>
      <rect x="794.0" y="433.7" width="6.59" height="6.59" fill="#fff2ed"/>
      <rect x="786.6" y="211.9" width="6.59" height="6.59" fill="#fff2ed"/>
      <rect x="801.4" y="211.9" width="6.59" height="6.59" fill="#fff2ed"/>
      <rect x="779.2" y="211.9" width="6.59" height="6.59" fill="#fff2ed"/>
      <rect x="808.8" y="211.9" width="6.59" height="6.59" fill="#fff2ed"/>
      <rect x="771.8" y="211.9" width="6.59" height="6.59" fill="#fff2ed"/>
      <rect x="816.2" y="211.9" width="6.59" height="6.59" fill="#fff2ed"/>
      <rect x="764.4" y="211.9" width="6.59" height="6.59" fill="#fff2ed"/>
      <rect x="823.6" y="211.9" width="6.59" height="6.59" fill="#fff2ed"/>
      <rect x="757.0" y="211.9" width="6.59" height="6.59" fill="#fff2ed"/>
      <rect x="831.0" y="211.9" width="6.59" height="6.59" fill="#fff2ed"/>
      <rect x="749.7" y="211.9" width="6.59" height="6.59" fill="#fff2ed"/>
      <rect x="831.0" y="219.3" width="6.59" height="6.59" fill="#fff2ed"/>
      <rect x="749.7" y="219.3" width="6.59" height="6.59" fill="#fff2ed"/>
      <rect x="838.3" y="219.3" width="6.59" height="6.59" fill="#fff2ed"/>
      <rect x="742.3" y="219.3" width="6.59" height="6.59" fill="#fff2ed"/>
      <rect x="845.7" y="219.3" width="6.59" height="6.59" fill="#fff2ed"/>
      <rect x="734.9" y="219.3" width="6.59" height="6.59" fill="#fff2ed"/>
      <rect x="853.1" y="219.3" width="6.59" height="6.59" fill="#fff2ed"/>
      <rect x="727.5" y="219.3" width="6.59" height="6.59" fill="#fff2ed"/>
      <rect x="853.1" y="226.7" width="6.59" height="6.59" fill="#fff2ed"/>
      <rect x="727.5" y="226.7" width="6.59" height="6.59" fill="#fff2ed"/>
      <rect x="860.5" y="226.7" width="6.59" height="6.59" fill="#fff2ed"/>
      <rect x="720.1" y="226.7" width="6.59" height="6.59" fill="#fff2ed"/>
      <rect x="867.9" y="226.7" width="6.59" height="6.59" fill="#fff2ed"/>
      <rect x="712.7" y="226.7" width="6.59" height="6.59" fill="#fff2ed"/>
      <rect x="867.9" y="234.1" width="6.59" height="6.59" fill="#fff2ed"/>
      <rect x="712.7" y="234.1" width="6.59" height="6.59" fill="#fff2ed"/>
      <rect x="875.3" y="234.1" width="6.59" height="6.59" fill="#fff2ed"/>
      <rect x="705.3" y="234.1" width="6.59" height="6.59" fill="#fff2ed"/>
      <rect x="882.7" y="234.1" width="6.59" height="6.59" fill="#fff2ed"/>
      <rect x="697.9" y="234.1" width="6.59" height="6.59" fill="#fff2ed"/>
      <rect x="882.7" y="241.5" width="6.59" height="6.59" fill="#fff2ed"/>
      <rect x="697.9" y="241.5" width="6.59" height="6.59" fill="#fff2ed"/>
      <rect x="890.1" y="241.5" width="6.59" height="6.59" fill="#fff2ed"/>
      <rect x="690.5" y="241.5" width="6.59" height="6.59" fill="#fff2ed"/>
      <rect x="890.1" y="248.9" width="6.59" height="6.59" fill="#fff2ed"/>
      <rect x="690.5" y="248.9" width="6.59" height="6.59" fill="#fff2ed"/>
      <rect x="897.5" y="248.9" width="6.59" height="6.59" fill="#fff2ed"/>
      <rect x="683.1" y="248.9" width="6.59" height="6.59" fill="#fff2ed"/>
      <rect x="897.5" y="256.3" width="6.59" height="6.59" fill="#fff2ed"/>
      <rect x="683.1" y="256.3" width="6.59" height="6.59" fill="#fff2ed"/>
      <rect x="904.9" y="256.3" width="6.59" height="6.59" fill="#fff2ed"/>
      <rect x="675.7" y="256.3" width="6.59" height="6.59" fill="#fff2ed"/>
      <rect x="904.9" y="263.7" width="6.59" height="6.59" fill="#fff2ed"/>
      <rect x="675.7" y="263.7" width="6.59" height="6.59" fill="#fff2ed"/>
      <rect x="912.3" y="263.7" width="6.59" height="6.59" fill="#fff2ed"/>
      <rect x="668.3" y="263.7" width="6.59" height="6.59" fill="#fff2ed"/>
      <rect x="912.3" y="271.0" width="6.59" height="6.59" fill="#fff2ed"/>
      <rect x="668.3" y="271.0" width="6.59" height="6.59" fill="#fff2ed"/>
      <rect x="919.7" y="271.0" width="6.59" height="6.59" fill="#fff2ed"/>
      <rect x="661.0" y="271.0" width="6.59" height="6.59" fill="#fff2ed"/>
      <rect x="919.7" y="278.4" width="6.59" height="6.59" fill="#fff2ed"/>
      <rect x="661.0" y="278.4" width="6.59" height="6.59" fill="#fff2ed"/>
      <rect x="919.7" y="285.8" width="6.59" height="6.59" fill="#fff2ed"/>
      <rect x="661.0" y="285.8" width="6.59" height="6.59" fill="#fff2ed"/>
      <rect x="919.7" y="293.2" width="6.59" height="6.59" fill="#fff2ed"/>
      <rect x="661.0" y="293.2" width="6.59" height="6.59" fill="#fff2ed"/>
      <rect x="927.0" y="293.2" width="6.59" height="6.59" fill="#fff2ed"/>
      <rect x="653.6" y="293.2" width="6.59" height="6.59" fill="#fff2ed"/>
      <rect x="927.0" y="300.6" width="6.59" height="6.59" fill="#fff2ed"/>
      <rect x="653.6" y="300.6" width="6.59" height="6.59" fill="#fff2ed"/>
      <rect x="786.6" y="271.0" width="6.59" height="6.59" fill="#fff2ed"/>
      <rect x="801.4" y="271.0" width="6.59" height="6.59" fill="#fff2ed"/>
      <rect x="779.2" y="271.0" width="6.59" height="6.59" fill="#fff2ed"/>
      <rect x="808.8" y="271.0" width="6.59" height="6.59" fill="#fff2ed"/>
      <rect x="771.8" y="271.0" width="6.59" height="6.59" fill="#fff2ed"/>
      <rect x="816.2" y="271.0" width="6.59" height="6.59" fill="#fff2ed"/>
      <rect x="764.4" y="271.0" width="6.59" height="6.59" fill="#fff2ed"/>
      <rect x="823.6" y="278.4" width="6.59" height="6.59" fill="#fff2ed"/>
      <rect x="757.0" y="278.4" width="6.59" height="6.59" fill="#fff2ed"/>
      <rect x="831.0" y="278.4" width="6.59" height="6.59" fill="#fff2ed"/>
      <rect x="749.7" y="278.4" width="6.59" height="6.59" fill="#fff2ed"/>
      <rect x="838.3" y="278.4" width="6.59" height="6.59" fill="#fff2ed"/>
      <rect x="742.3" y="278.4" width="6.59" height="6.59" fill="#fff2ed"/>
      <rect x="845.7" y="278.4" width="6.59" height="6.59" fill="#fff2ed"/>
      <rect x="734.9" y="278.4" width="6.59" height="6.59" fill="#fff2ed"/>
      <rect x="845.7" y="285.8" width="6.59" height="6.59" fill="#fff2ed"/>
      <rect x="734.9" y="285.8" width="6.59" height="6.59" fill="#fff2ed"/>
      <rect x="853.1" y="285.8" width="6.59" height="6.59" fill="#fff2ed"/>
      <rect x="727.5" y="285.8" width="6.59" height="6.59" fill="#fff2ed"/>
      <rect x="860.5" y="285.8" width="6.59" height="6.59" fill="#fff2ed"/>
      <rect x="720.1" y="285.8" width="6.59" height="6.59" fill="#fff2ed"/>
      <rect x="867.9" y="285.8" width="6.59" height="6.59" fill="#fff2ed"/>
      <rect x="712.7" y="285.8" width="6.59" height="6.59" fill="#fff2ed"/>
      <rect x="867.9" y="293.2" width="6.59" height="6.59" fill="#fff2ed"/>
      <rect x="712.7" y="293.2" width="6.59" height="6.59" fill="#fff2ed"/>
      <rect x="875.3" y="293.2" width="6.59" height="6.59" fill="#fff2ed"/>
      <rect x="705.3" y="293.2" width="6.59" height="6.59" fill="#fff2ed"/>
      <rect x="882.7" y="293.2" width="6.59" height="6.59" fill="#fff2ed"/>
      <rect x="697.9" y="293.2" width="6.59" height="6.59" fill="#fff2ed"/>
      <rect x="882.7" y="300.6" width="6.59" height="6.59" fill="#fff2ed"/>
      <rect x="697.9" y="300.6" width="6.59" height="6.59" fill="#fff2ed"/>
      <rect x="890.1" y="300.6" width="6.59" height="6.59" fill="#fff2ed"/>
      <rect x="690.5" y="300.6" width="6.59" height="6.59" fill="#fff2ed"/>
      <rect x="890.1" y="308.0" width="6.59" height="6.59" fill="#fff2ed"/>
      <rect x="690.5" y="308.0" width="6.59" height="6.59" fill="#fff2ed"/>
      <rect x="897.5" y="308.0" width="6.59" height="6.59" fill="#fff2ed"/>
      <rect x="683.1" y="308.0" width="6.59" height="6.59" fill="#fff2ed"/>
      <rect x="897.5" y="315.4" width="6.59" height="6.59" fill="#fff2ed"/>
      <rect x="683.1" y="315.4" width="6.59" height="6.59" fill="#fff2ed"/>
      <rect x="904.9" y="315.4" width="6.59" height="6.59" fill="#fff2ed"/>
      <rect x="675.7" y="315.4" width="6.59" height="6.59" fill="#fff2ed"/>
      <rect x="904.9" y="322.8" width="6.59" height="6.59" fill="#fff2ed"/>
      <rect x="675.7" y="322.8" width="6.59" height="6.59" fill="#fff2ed"/>
      <rect x="904.9" y="330.2" width="6.59" height="6.59" fill="#fff2ed"/>
      <rect x="675.7" y="330.2" width="6.59" height="6.59" fill="#fff2ed"/>
      <rect x="912.3" y="330.2" width="6.59" height="6.59" fill="#fff2ed"/>
      <rect x="668.3" y="330.2" width="6.59" height="6.59" fill="#fff2ed"/>
      <rect x="912.3" y="337.6" width="6.59" height="6.59" fill="#fff2ed"/>
      <rect x="668.3" y="337.6" width="6.59" height="6.59" fill="#fff2ed"/>
      <rect x="912.3" y="345.0" width="6.59" height="6.59" fill="#fff2ed"/>
      <rect x="668.3" y="345.0" width="6.59" height="6.59" fill="#fff2ed"/>
      <rect x="912.3" y="352.3" width="6.59" height="6.59" fill="#fff2ed"/>
      <rect x="668.3" y="352.3" width="6.59" height="6.59" fill="#fff2ed"/>
      <rect x="912.3" y="359.7" width="6.59" height="6.59" fill="#fff2ed"/>
      <rect x="668.3" y="359.7" width="6.59" height="6.59" fill="#fff2ed"/>
      <rect x="912.3" y="367.1" width="6.59" height="6.59" fill="#fff2ed"/>
      <rect x="668.3" y="367.1" width="6.59" height="6.59" fill="#fff2ed"/>
      <rect x="786.6" y="330.2" width="6.59" height="6.59" fill="#fff2ed"/>
      <rect x="801.4" y="330.2" width="6.59" height="6.59" fill="#fff2ed"/>
      <rect x="779.2" y="330.2" width="6.59" height="6.59" fill="#fff2ed"/>
      <rect x="808.8" y="330.2" width="6.59" height="6.59" fill="#fff2ed"/>
      <rect x="771.8" y="330.2" width="6.59" height="6.59" fill="#fff2ed"/>
      <rect x="808.8" y="337.6" width="6.59" height="6.59" fill="#fff2ed"/>
      <rect x="771.8" y="337.6" width="6.59" height="6.59" fill="#fff2ed"/>
      <rect x="816.2" y="337.6" width="6.59" height="6.59" fill="#fff2ed"/>
      <rect x="764.4" y="337.6" width="6.59" height="6.59" fill="#fff2ed"/>
      <rect x="823.6" y="337.6" width="6.59" height="6.59" fill="#fff2ed"/>
      <rect x="757.0" y="337.6" width="6.59" height="6.59" fill="#fff2ed"/>
      <rect x="831.0" y="337.6" width="6.59" height="6.59" fill="#fff2ed"/>
      <rect x="749.7" y="337.6" width="6.59" height="6.59" fill="#fff2ed"/>
      <rect x="831.0" y="345.0" width="6.59" height="6.59" fill="#fff2ed"/>
      <rect x="749.7" y="345.0" width="6.59" height="6.59" fill="#fff2ed"/>
      <rect x="838.3" y="345.0" width="6.59" height="6.59" fill="#fff2ed"/>
      <rect x="742.3" y="345.0" width="6.59" height="6.59" fill="#fff2ed"/>
      <rect x="845.7" y="345.0" width="6.59" height="6.59" fill="#fff2ed"/>
      <rect x="734.9" y="345.0" width="6.59" height="6.59" fill="#fff2ed"/>
      <rect x="853.1" y="345.0" width="6.59" height="6.59" fill="#fff2ed"/>
      <rect x="727.5" y="345.0" width="6.59" height="6.59" fill="#fff2ed"/>
      <rect x="853.1" y="352.3" width="6.59" height="6.59" fill="#fff2ed"/>
      <rect x="727.5" y="352.3" width="6.59" height="6.59" fill="#fff2ed"/>
      <rect x="860.5" y="352.3" width="6.59" height="6.59" fill="#fff2ed"/>
      <rect x="720.1" y="352.3" width="6.59" height="6.59" fill="#fff2ed"/>
      <rect x="860.5" y="359.7" width="6.59" height="6.59" fill="#fff2ed"/>
      <rect x="720.1" y="359.7" width="6.59" height="6.59" fill="#fff2ed"/>
      <rect x="867.9" y="359.7" width="6.59" height="6.59" fill="#fff2ed"/>
      <rect x="712.7" y="359.7" width="6.59" height="6.59" fill="#fff2ed"/>
      <rect x="867.9" y="367.1" width="6.59" height="6.59" fill="#fff2ed"/>
      <rect x="712.7" y="367.1" width="6.59" height="6.59" fill="#fff2ed"/>
      <rect x="875.3" y="367.1" width="6.59" height="6.59" fill="#fff2ed"/>
      <rect x="705.3" y="367.1" width="6.59" height="6.59" fill="#fff2ed"/>
      <rect x="875.3" y="374.5" width="6.59" height="6.59" fill="#fff2ed"/>
      <rect x="705.3" y="374.5" width="6.59" height="6.59" fill="#fff2ed"/>
      <rect x="875.3" y="381.9" width="6.59" height="6.59" fill="#fff2ed"/>
      <rect x="705.3" y="381.9" width="6.59" height="6.59" fill="#fff2ed"/>
      <rect x="882.7" y="381.9" width="6.59" height="6.59" fill="#fff2ed"/>
      <rect x="697.9" y="381.9" width="6.59" height="6.59" fill="#fff2ed"/>
      <rect x="882.7" y="389.3" width="6.59" height="6.59" fill="#fff2ed"/>
      <rect x="697.9" y="389.3" width="6.59" height="6.59" fill="#fff2ed"/>
      <rect x="882.7" y="396.7" width="6.59" height="6.59" fill="#fff2ed"/>
      <rect x="697.9" y="396.7" width="6.59" height="6.59" fill="#fff2ed"/>
      <rect x="882.7" y="404.1" width="6.59" height="6.59" fill="#fff2ed"/>
      <rect x="697.9" y="404.1" width="6.59" height="6.59" fill="#fff2ed"/>
      <rect x="882.7" y="411.5" width="6.59" height="6.59" fill="#fff2ed"/>
      <rect x="697.9" y="411.5" width="6.59" height="6.59" fill="#fff2ed"/>
      <rect x="882.7" y="418.9" width="6.59" height="6.59" fill="#fff2ed"/>
      <rect x="697.9" y="418.9" width="6.59" height="6.59" fill="#fff2ed"/>
      <rect x="875.3" y="418.9" width="6.59" height="6.59" fill="#fff2ed"/>
      <rect x="705.3" y="418.9" width="6.59" height="6.59" fill="#fff2ed"/>
    </g>
    <rect x="624" y="138" width="340" height="340" fill="none" stroke="#f40c3f" stroke-width="1.5" opacity="0.8"/>
    <text x="794" y="522" fill="#f40c3f" text-anchor="middle" font-family="ui-monospace, SFMono-Regular, Menlo, Consolas, monospace" font-size="20" letter-spacing="2">RESTORED</text>

    <text x="550" y="286" fill="#fff2ed" opacity="0.6" text-anchor="middle" font-family="ui-monospace, SFMono-Regular, Menlo, Consolas, monospace" font-size="24" letter-spacing="1.2">4x</text>
    <path d="M 512 320 L 588 320" stroke="#f40c3f" stroke-width="3"/>
    <path d="M 588 320 l -16 -9 l 0 18 Z" fill="#f40c3f"/>
</svg>
